<?xml version="1.0" standalone="no"?><svg xmlns="http://www.w3.org/2000/svg" viewBox="0 0 1440 320"><path fill="#dbb826" fill-opacity="1" d="M0,0L34.3,42.7C68.6,85,137,171,206,176C274.3,181,343,107,411,106.7C480,107,549,181,617,176C685.7,171,754,85,823,74.7C891.4,64,960,128,1029,138.7C1097.1,149,1166,107,1234,117.3C1302.9,128,1371,192,1406,224L1440,256L1440,320L1405.7,320C1371.4,320,1303,320,1234,320C1165.7,320,1097,320,1029,320C960,320,891,320,823,320C754.3,320,686,320,617,320C548.6,320,480,320,411,320C342.9,320,274,320,206,320C137.1,320,69,320,34,320L0,320Z"></path></svg>